<svg width="34" height="43" viewBox="0 0 34 43" fill="none" xmlns="http://www.w3.org/2000/svg">
<path d="M8.1875 11.2188H14.0625M8.1875 21.5H25.8125M8.1875 27.375H25.8125M8.1875 33.25H14.0625M5.25 40.5938H28.75C29.5291 40.5938 30.2762 40.2843 30.8271 39.7334C31.378 39.1825 31.6875 38.4353 31.6875 37.6562V5.34375C31.6875 4.56468 31.378 3.81751 30.8271 3.26662C30.2762 2.71574 29.5291 2.40625 28.75 2.40625H5.25C4.47093 2.40625 3.72376 2.71574 3.17287 3.26662C2.62199 3.81751 2.3125 4.56468 2.3125 5.34375V37.6562C2.3125 38.4353 2.62199 39.1825 3.17287 39.7334C3.72376 40.2843 4.47093 40.5938 5.25 40.5938Z" stroke="#545454" stroke-width="2.9375" stroke-linecap="round" stroke-linejoin="round"/>
</svg>
